Coordinates
version=1
nRows=21
nColumns=12
inDegrees=yes

Units are S.I. units (second, meters, Newtons, ...)
Angles are in degrees

endheader
time	SC_y	SC_z	SC_x	AC_y	AC_z	AC_x	GH_y	GH_z	GH_yy	EL_x	PS_y
       0.0              -20.73         0.8783          66.83          34.23          2.599         -17.12          29.94          27.52          52.52          101.2          141.5
   0.03075              -20.73         0.8786          66.83          34.23          2.597         -17.12          29.95          27.52          52.51          101.2          141.5
    0.0615              -20.73         0.8788          66.82          34.22          2.596         -17.12          29.96          27.51          52.49          101.2          141.5
   0.09226              -20.72          0.879          66.82          34.22          2.594         -17.12          29.98          27.51          52.48          101.2          141.5
     0.123              -20.72         0.8793          66.82          34.22          2.592         -17.12          29.99          27.51          52.46          101.2          141.5
    0.1538              -20.72         0.8796          66.82          34.22          2.591         -17.12          30.01           27.5          52.44          101.2          141.5
    0.1845              -20.72         0.8799          66.81          34.22          2.589         -17.11          30.03           27.5          52.42          101.2          141.5
    0.2153              -20.72         0.8802          66.81          34.22          2.587         -17.11          30.04          27.49           52.4          101.1          141.5
     0.246              -20.72         0.8805           66.8          34.22          2.584         -17.11          30.06          27.49          52.37          101.1          141.5
    0.2768              -20.72         0.8809           66.8          34.22          2.582         -17.11          30.08          27.48          52.35          101.1          141.5
    0.3075              -20.72         0.8813           66.8          34.22          2.579         -17.11          30.11          27.48          52.32          101.1          141.5
    0.3383              -20.72         0.8817          66.79          34.22          2.577          -17.1          30.13          27.47          52.29          101.1          141.5
     0.369              -20.72         0.8821          66.79          34.22          2.574          -17.1          30.16          27.46          52.26          101.1          141.5
    0.3998              -20.71         0.8826          66.78          34.22          2.571          -17.1          30.18          27.46          52.23          101.0          141.5
    0.4305              -20.71         0.8832          66.77          34.22          2.567         -17.09          30.21          27.45          52.19          101.0          141.5
    0.4613              -20.71         0.8837          66.77          34.21          2.563         -17.09          30.25          27.44          52.15          101.0          141.5
     0.492              -20.71         0.8844          66.76          34.21          2.559         -17.09          30.28          27.43          52.11          100.9          141.5
    0.5228              -20.71          0.885          66.75          34.21          2.555         -17.08          30.32          27.42          52.06          100.9          141.5
    0.5535              -20.71         0.8858          66.74          34.21           2.55         -17.08          30.36          27.41          52.01          100.9          141.4
    0.5843               -20.7         0.8866          66.73          34.21          2.545         -17.08          30.41          27.39          51.95          100.8          141.4
     0.615               -20.7         0.8875          66.72          34.21          2.539         -17.07          30.46          27.38          51.89          100.8          141.4
